<?xml version="1.0" encoding="UTF-8"?>
<svg width="1200pt" height="1200pt" version="1.1" viewBox="0 0 1200 1200" xmlns="http://www.w3.org/2000/svg">
 <path d="m649.22 531.61c0 60.797-91.219 60.797-91.219 0s91.219-60.797 91.219 0" fill="white"/>
 <path d="m349.22 355.22c4.7812-6 2.3906-15.609-3.6094-20.391l-146.39-103.22c-6-3.6094-13.219-7.2188-20.391-8.3906-28.781-6-56.391 13.219-61.219 42-6 28.781 13.219 56.391 42 61.219l176.39 33.609c4.7812 2.3438 9.6094-0.046875 13.219-4.8281z" fill="white"/>
 <path d="m394.78 298.78c3.6094 3.6094 9.6094 4.7812 15.609 2.3906 7.2188-3.6094 10.781-12 7.2188-19.219l-70.828-164.34c-2.3906-6-7.2188-13.219-13.219-18-21.609-20.391-55.219-18-74.391 2.3906-20.391 21.609-18 55.219 2.3906 74.391z" fill="white"/>
 <path d="m476.39 270c1.2188 4.7812 6 9.6094 12 10.781 8.3906 1.2188 15.609-3.6094 16.781-12l27.609-176.39c1.2188-7.2188 1.2188-14.391-1.2188-21.609-7.2188-27.609-36-44.391-64.781-37.219-27.609 7.2188-44.391 36-37.219 64.781z" fill="white"/>
 <path d="m1083.6 673.22c-37.219-202.78-213.61-350.39-420-350.39h-15.609c-15.609 0-32.391 2.3906-48 4.7812-171.61 27.609-302.39 176.39-309.61 355.22-4.7812 102-46.781 198-118.78 270-9.6094 9.6094-9.6094 24-1.2188 33.609 7.2188 8.3906 166.78 184.78 384 184.78 32.391 0 66-3.6094 100.78-13.219 10.781-2.3906 18-12 18-22.781 2.3906-51.609 4.7812-102 6-153.61 2.3906-49.219 0-97.219 20.391-144 46.781-108 168-170.39 286.78-147.61l57.609 10.781h7.2188c3.6094 1.2188 8.3906 1.2188 12 1.2188 14.438-2.3906 22.828-15.609 20.438-28.781zm-428.39 145.18c-24 55.219-21.609 115.22-24 174-2.3906 40.781-3.6094 81.609-4.7812 122.39-192 39.609-354-97.219-404.39-145.22 70.781-78 111.61-178.78 116.39-284.39 7.2188-154.78 120-284.39 268.78-308.39 14.391-2.3906 27.609-3.6094 42-3.6094h14.391c152.39 0 285.61 90 345.61 223.22-40.781-38.391-91.219-66-146.39-79.219-13.219-3.6094-26.391 4.7812-28.781 18-3.6094 13.219 4.7812 26.391 18 28.781 51.609 12 98.391 39.609 134.39 78-139.22-22.734-277.22 50.438-331.22 176.44z" fill="white"/>
</svg>
